<svg xmlns="http://www.w3.org/2000/svg" viewBox="0 0 153.34 168.13"><defs><style>.cls-1{fill:none;stroke:#ffa310;stroke-miterlimit:10;stroke-width:2.44px;}</style></defs><g id="Layer_2" data-name="Layer 2"><g id="Layer_1-2" data-name="Layer 1"><path class="cls-1" d="M152.12,76.67v31.16a11.73,11.73,0,0,1-3.44,8.29l-47.36,47.36A11.73,11.73,0,0,1,93,166.92H60.31A11.71,11.71,0,0,1,52,163.48L4.65,116.12a11.72,11.72,0,0,1-3.43-8.29V76.67a11.74,11.74,0,0,1,3.43-8.3L68.37,4.65A11.73,11.73,0,0,1,85,4.65l63.72,63.72A11.75,11.75,0,0,1,152.12,76.67Z"/><polygon class="cls-1" points="75.64 118.17 49.97 92.49 49.97 92 76.67 65.3 103.37 92 103.37 92.49 77.69 118.17 75.64 118.17"/><line class="cls-1" x1="76.67" y1="65.3" x2="76.67" y2="1.22"/><line class="cls-1" x1="76.67" y1="118.17" x2="52.89" y2="165.03"/><polyline class="cls-1" points="1.23 71.83 47.72 92.49 1 112.11"/><line class="cls-1" x1="100.44" y1="165.03" x2="76.67" y2="118.17"/><polyline class="cls-1" points="152.34 112.11 105.61 92.49 152.1 71.83"/><line class="cls-1" x1="15.75" y1="67.99" x2="69.34" y2="14.4"/><line class="cls-1" x1="21.16" y1="73.4" x2="31.33" y2="63.22"/><line class="cls-1" x1="66.49" y1="84.07" x2="76.67" y2="73.89"/></g></g></svg>