<svg xmlns="http://www.w3.org/2000/svg" viewBox="0 0 224.92 214.03"><defs><style>.cls-1{stroke:#ffa310;stroke-miterlimit:10;stroke-width:2px;}</style></defs><g id="Layer_2" data-name="Layer 2"><g id="Layer_1-2" data-name="Layer 1"><path class="cls-1" d="M198.46,38.05a172.5,172.5,0,0,1-86.3,149.53A172.51,172.51,0,0,1,25.87,38.05c0-4.82.18-9.57.59-14.26a172.55,172.55,0,0,1,171.41,0Q198.47,30.83,198.46,38.05Z"/><path class="cls-1" d="M198.46,38.05a172.5,172.5,0,0,1-86.3,149.53A172.51,172.51,0,0,1,25.87,38.05c0-4.82.18-9.57.59-14.26a172.55,172.55,0,0,1,171.41,0Q198.47,30.83,198.46,38.05Z"/><rect class="cls-1" x="129.27" y="58.61" width="6.81" height="21.86"/><rect class="cls-1" x="82.02" y="89.67" width="59.82" height="32.98"/><path class="cls-1" d="M111.14,58.73,73.81,87a1.3,1.3,0,0,0,.79,2.34h74.65A1.3,1.3,0,0,0,150,87L112.71,58.73A1.3,1.3,0,0,0,111.14,58.73Z"/><rect class="cls-1" x="106.17" y="101.15" width="11.5" height="21.44"/><rect class="cls-1" x="89.16" y="102.06" width="9.85" height="9.85"/><rect class="cls-1" x="124.35" y="102.06" width="9.85" height="9.85"/><path class="cls-1" d="M132.5,53c0-11.88-15.19-17.74-2.62-34.94"/><circle class="cls-1" cx="114.35" cy="111.91" r="1.34"/><line class="cls-1" x1="176.12" y1="122.65" x2="48.41" y2="122.65"/><line class="cls-1" x1="162.21" y1="114.23" x2="162.21" y2="123.66"/><polygon class="cls-1" points="165.44 107.28 168.66 107.28 162.21 97.47 155.76 107.28 158.99 107.28 155.76 112.19 158.99 112.19 155.76 117.09 168.66 117.09 165.44 112.19 168.66 112.19 165.44 107.28"/><line class="cls-1" x1="59.31" y1="108.93" x2="59.31" y2="122.49"/><polygon class="cls-1" points="63.95 98.94 68.58 98.94 59.31 84.83 50.04 98.94 54.67 98.94 50.04 105.99 54.67 105.99 50.04 113.04 68.58 113.04 63.95 105.99 68.58 105.99 63.95 98.94"/><circle class="cls-1" cx="26.46" cy="26.62" r="25.46"/><path class="cls-1" d="M26.46,7.67h0a8.16,8.16,0,0,1,8.16,8.16V34.62a0,0,0,0,1,0,0H18.3a0,0,0,0,1,0,0V15.83a8.16,8.16,0,0,1,8.16-8.16Z"/><rect class="cls-1" x="13.81" y="23.4" width="25.3" height="16.87"/><path class="cls-1" d="M27.83,32.11l.62,4h-4l.62-4a2.51,2.51,0,1,1,2.75,0Z"/><circle class="cls-1" cx="198.46" cy="26.62" r="25.46"/><path class="cls-1" d="M214.83,30.62v-8h-4.67a10.74,10.74,0,0,0-.59-1.45l3.3-3.31-5.66-5.64-3.3,3.29a9.63,9.63,0,0,0-1.45-.6V10.24h-8v4.67a11.62,11.62,0,0,0-1.45.6l-3.3-3.29-5.66,5.64,3.3,3.31a10.74,10.74,0,0,0-.59,1.45h-4.67v8h4.67a10.74,10.74,0,0,0,.59,1.45l-3.3,3.3L189.71,41,193,37.73a12.43,12.43,0,0,0,1.46.6V43h8V38.33a12.43,12.43,0,0,0,1.46-.6L207.21,41l5.66-5.65-3.3-3.3a10.74,10.74,0,0,0,.59-1.45Z"/><circle class="cls-1" cx="198.46" cy="26.62" r="4.22"/><circle class="cls-1" cx="111.92" cy="187.58" r="25.46"/><circle class="cls-1" cx="124.1" cy="188.15" r="3.32"/><path class="cls-1" d="M129.25,198.53a5.15,5.15,0,0,0-10.3,0"/><circle class="cls-1" cx="99.75" cy="188.15" r="3.32"/><path class="cls-1" d="M104.9,198.53a5.15,5.15,0,1,0-10.3,0"/><circle class="cls-1" cx="111.92" cy="181.34" r="6.27"/><path class="cls-1" d="M121.65,201a9.73,9.73,0,0,0-19.45,0"/></g></g></svg>