<svg xmlns="http://www.w3.org/2000/svg" viewBox="0 0 214.35 216.51"><defs><style>.cls-1,.cls-3{fill:none;}.cls-1,.cls-3,.cls-4{stroke:#ffa310;stroke-miterlimit:10;}.cls-1{opacity:0.15;}.cls-2{font-size:27.1px;fill:#fff;font-family:Muli-Light, Muli;font-weight:300;}.cls-3,.cls-4{stroke-width:2px;}</style></defs><g id="Layer_2" data-name="Layer 2"><g id="Layer_1-2" data-name="Layer 1"><circle class="cls-1" cx="107.13" cy="106.26" r="95.03"/><text class="cls-2" transform="translate(56.4 114.16)">13 Skills</text><polyline class="cls-3" points="93.79 11.52 103.9 1.41 120.46 17.98"/><polyline class="cls-3" points="93.79 11.05 103.9 21.16 120.46 4.59"/><polygon class="cls-4" points="156.14 9.03 147.9 9.2 149.04 16.08 155.35 16 156.14 9.03"/><path class="cls-4" d="M146.71,30.59l10.62-.14a2.44,2.44,0,0,0,2.2-3.41L155,16.67l-6.3.08-4.27,10.49A2.44,2.44,0,0,0,146.71,30.59Z"/><line class="cls-4" x1="153.98" y1="24.48" x2="152.58" y2="21.4"/><path class="cls-4" d="M198.31,45.29a3.29,3.29,0,1,1-4.65,4.65,2.8,2.8,0,0,1-.46-.57l-10,10a3.41,3.41,0,0,1,.57.45,3.3,3.3,0,1,1-5.43,1.22,3.29,3.29,0,1,1,1.22-5.43,3.53,3.53,0,0,1,.45.57l10-10a2.64,2.64,0,0,1-.56-.45,3.29,3.29,0,1,1,5.42-1.21A3.26,3.26,0,0,1,198.31,45.29Z"/><path class="cls-4" d="M213.35,102.12v4.69h-22a4.7,4.7,0,0,1,4.7-4.69h1.89v-3a6.35,6.35,0,0,0-6.35-6.34h0l-4.37-5.56h25.92v5.56h0a6.34,6.34,0,0,0-6.35,6.34v3Z"/><path class="cls-4" d="M165.58,194.07a13.93,13.93,0,0,1,19.7-19.71"/><line class="cls-4" x1="176.07" y1="184.85" x2="157.41" y2="166.19"/><polygon class="cls-4" points="160.47 166.61 157.08 165.86 157.83 169.25 160.47 166.61"/><line class="cls-4" x1="183.24" y1="173.58" x2="164.8" y2="192.02"/><polygon class="cls-4" points="56.67 171.84 57.23 165.02 50.4 165.57 36.43 179.54 42.7 185.81 56.67 171.84"/><polygon class="cls-4" points="40.72 185.19 37.06 181.53 26.92 192.64 29.61 195.33 40.72 185.19"/><rect class="cls-4" x="29.81" y="182.16" width="16.99" height="3.56" transform="translate(141.29 26.79) rotate(45)"/><line class="cls-4" x1="130.25" y1="203.65" x2="130.25" y2="214.33"/><polygon class="cls-4" points="133.9 195.78 137.55 195.78 130.25 184.67 122.94 195.78 126.59 195.78 122.94 201.33 126.59 201.33 122.94 206.89 137.55 206.89 133.9 201.33 137.55 201.33 133.9 195.78"/><line class="cls-4" x1="84.01" y1="216.51" x2="84.01" y2="186.4"/><polyline class="cls-3" points="78.66 186.39 84 191.75 89.36 186.41"/><polyline class="cls-3" points="78.66 192.67 84 198.03 89.36 192.69"/><polyline class="cls-3" points="78.66 198.95 84 204.31 89.36 198.96"/><polyline class="cls-3" points="78.66 205.22 84 210.58 89.36 205.24"/><rect class="cls-4" x="14.23" y="126.6" width="4.11" height="32.73" transform="translate(-73.29 255.57) rotate(-135)"/><polygon class="cls-4" points="21.21 129.47 15.78 134.9 20.94 138.21 25.58 149.43 32.46 146.15 35.74 139.27 24.81 134.34 21.21 129.47"/><polygon class="cls-4" points="186.97 130.35 182.64 134.68 206.82 157.69 209.98 154.53 186.97 130.35"/><path class="cls-4" d="M204,131.21c-6-1.89-11.94-1.21-16.81,3.66s-5.55,10.84-3.66,16.81l2.15,4.43a18.56,18.56,0,0,1,22.75-22.75Z"/><path class="cls-4" d="M13,88.76v16.51H2.33A1.33,1.33,0,0,1,1.4,103L6.64,97.9V88.76Z"/><path class="cls-4" d="M18.15,88.76v16.51H28.78A1.33,1.33,0,0,0,29.7,103L24.47,97.9V88.76Z"/><rect class="cls-4" x="54.03" y="31.84" width="18.96" height="3.93"/><path class="cls-4" d="M65.14,27.56h0A7.85,7.85,0,0,0,73,19.71v-4a7.86,7.86,0,0,0-7.85-7.85h-1a7.85,7.85,0,0,0-7.84,7.85v.77"/><line class="cls-4" x1="72.99" y1="19.71" x2="72.99" y2="31.84"/><line class="cls-4" x1="56.32" y1="15.72" x2="56.32" y2="22.21"/><path class="cls-4" d="M54,31.84V24.91a8.42,8.42,0,0,1,8.42-8.42h3a2.29,2.29,0,0,1,2.29,2.29h0a2.3,2.3,0,0,1-2.29,2.29H61.55a2.28,2.28,0,0,0-2.29,2.28v4.21"/><circle class="cls-4" cx="104.08" cy="8.7" r="0.76"/><polygon class="cls-4" points="33.17 58.36 36.13 55.4 16.13 36.12 13.89 38.36 33.17 58.36"/><path class="cls-4" d="M40.87,54.32c2.43,2.43,0,8.78,0,8.78s-6.35,2.43-8.78,0L24,55l8.78-8.78Z"/><line class="cls-4" x1="31.76" y1="53.99" x2="38.17" y2="60.4"/></g></g></svg>