<svg xmlns="http://www.w3.org/2000/svg" viewBox="0 0 122.88 155.71"><defs><style>.cls-1{stroke:#ffa310;stroke-miterlimit:10;stroke-width:2px;}</style></defs><g id="Layer_2" data-name="Layer 2"><g id="Layer_1-2" data-name="Layer 1"><path class="cls-1" d="M85.68,11.85c0-23.38-10.85-1.7-24.24-1.7S37.2-11.53,37.2,11.85,61.44,54.18,61.44,54.18,85.68,35.23,85.68,11.85Z"/><circle class="cls-1" cx="61.44" cy="94.27" r="60.44"/><path class="cls-1" d="M94.51,91v13.66a5.14,5.14,0,0,1-1.5,3.63L72.25,129.08a5.17,5.17,0,0,1-3.64,1.51H54.27a5.15,5.15,0,0,1-3.63-1.51L29.88,108.32a5.11,5.11,0,0,1-1.51-3.63V91a5.13,5.13,0,0,1,1.51-3.64L57.81,59.46a5.14,5.14,0,0,1,7.27,0L93,87.39A5.16,5.16,0,0,1,94.51,91Z"/><polygon class="cls-1" points="60.99 109.22 49.74 97.96 49.74 97.75 61.44 86.04 73.15 97.75 73.15 97.96 61.89 109.22 60.99 109.22"/><line class="cls-1" x1="61.44" y1="86.04" x2="61.44" y2="57.95"/><line class="cls-1" x1="61.44" y1="109.22" x2="51.02" y2="129.76"/><polyline class="cls-1" points="28.38 88.91 48.76 97.96 28.27 106.56"/><line class="cls-1" x1="71.86" y1="129.76" x2="61.44" y2="109.22"/><polyline class="cls-1" points="94.61 106.56 74.13 97.96 94.51 88.91"/><line class="cls-1" x1="34.74" y1="87.22" x2="58.23" y2="63.73"/><line class="cls-1" x1="37.11" y1="89.59" x2="41.57" y2="85.13"/><line class="cls-1" x1="56.98" y1="94.27" x2="61.44" y2="89.81"/><rect class="cls-1" x="31.38" y="27.59" width="60.12" height="16.95" rx="8.47"/></g></g></svg>