<svg xmlns="http://www.w3.org/2000/svg" viewBox="0 0 222.69 189.99"><defs><style>.cls-1,.cls-2{stroke:#ffa310;stroke-miterlimit:10;stroke-width:2px;}.cls-2{opacity:0.23;}</style></defs><g id="Layer_2" data-name="Layer 2"><g id="Layer_1-2" data-name="Layer 1"><rect class="cls-1" x="23.13" y="163.1" width="25.88" height="25.88"/><line class="cls-1" x1="43.77" y1="163.1" x2="43.77" y2="176.05"/><line class="cls-1" x1="28.5" y1="188.99" x2="28.5" y2="169.57"/><line class="cls-1" x1="34.48" y1="182.01" x2="34.48" y2="169.57"/><rect class="cls-1" x="91.23" y="62.26" width="25.88" height="108.26" transform="translate(164.84 -27.55) rotate(64.69)"/><rect class="cls-1" x="125.33" y="66.93" width="34.36" height="34.36" transform="translate(36.66 -43.09) rotate(19.69)"/><rect class="cls-1" x="145.71" y="47.3" width="34.36" height="34.36" transform="translate(31.24 -51.1) rotate(19.69)"/><rect class="cls-1" x="170.7" y="100.47" width="34.36" height="34.36" transform="translate(50.61 -56.41) rotate(19.69)"/><rect class="cls-1" x="128.38" y="98.48" width="40.19" height="40.19" transform="translate(48.62 -43.09) rotate(19.69)"/><rect class="cls-1" x="182.27" y="68.12" width="34.36" height="34.36" transform="translate(40.39 -62.2) rotate(19.69)"/><rect class="cls-1" x="144.19" y="75.71" width="48.5" height="48.5" transform="translate(43.52 -50.9) rotate(19.69)"/><rect class="cls-1" x="157.89" y="94.77" width="20.84" height="20.84" transform="translate(45.27 -50.55) rotate(19.69)"/><line class="cls-1" x1="109.54" y1="113.04" x2="129.76" y2="103.48"/><line class="cls-1" x1="94.46" y1="115.44" x2="114.69" y2="105.87"/><line class="cls-1" x1="68.25" y1="134.41" x2="77.93" y2="129.83"/><line class="cls-1" x1="52.77" y1="133.25" x2="62.46" y2="128.67"/><line class="cls-1" x1="87.23" y1="124.4" x2="96.92" y2="119.82"/><line class="cls-1" x1="106.95" y1="121.26" x2="116.64" y2="116.68"/><line class="cls-1" x1="58.37" y1="144.82" x2="68.06" y2="140.23"/><line class="cls-1" x1="77.91" y1="138.22" x2="98.13" y2="128.65"/><line class="cls-1" x1="69.52" y1="124.56" x2="89.74" y2="115"/><path class="cls-2" d="M137.75,35.26S127.54,1,93,1"/><path class="cls-2" d="M115.85,64.39S95.72,27.86,35.25,30"/><path class="cls-2" d="M86.43,85.57S59.07,51.78.23,65.89"/></g></g></svg>